HIERARCHY
ROOT Hips
{
	OFFSET 0.000000 0.000000 0.000000
	CHANNELS 6 Xposition Yposition Zposition Zrotation Yrotation Xrotation 
	JOINT LeftUpLeg_virtual
	{
		OFFSET 0.000000 0.000000 0.000000
		CHANNELS 3 Zrotation Yrotation Xrotation
		JOINT LeftUpLeg
		{
			OFFSET 8.479694 -4.795517 -0.379053
			CHANNELS 3 Zrotation Yrotation Xrotation
			JOINT LeftLeg
			{
				OFFSET 0.485052 -32.551468 0.112863
				CHANNELS 3 Zrotation Yrotation Xrotation
				JOINT LeftFoot
				{
					OFFSET 0.438033 -32.635670 -3.012641
					CHANNELS 3 Zrotation Yrotation Xrotation
					JOINT LeftToeBase
					{
						OFFSET 0.970169 -13.225353 11.864223
						CHANNELS 3 Zrotation Yrotation Xrotation
						End Site
						{
							OFFSET 0.000000 0.000000 0.000000
						}
					}
				}
			}
		}
	}
	JOINT RightUpLeg_virtual
	{
		OFFSET 0.000000 0.000000 0.000000
		CHANNELS 3 Zrotation Yrotation Xrotation
		JOINT RightUpLeg
		{
			OFFSET -8.479694 -4.795517 -0.379053
			CHANNELS 3 Zrotation Yrotation Xrotation
			JOINT RightLeg
			{
				OFFSET -0.484100 -32.551483 0.112903
				CHANNELS 3 Zrotation Yrotation Xrotation
				JOINT RightFoot
				{
					OFFSET -0.438985 -32.635651 -3.012681
					CHANNELS 3 Zrotation Yrotation Xrotation
					JOINT RightToeBase
					{
						OFFSET -0.970169 -13.225354 11.864223
						CHANNELS 3 Zrotation Yrotation Xrotation
						End Site
						{
							OFFSET 0.000000 0.000000 0.000000
						}
					}
				}
			}
		}
	}
	JOINT Spine_virtual
	{
		OFFSET 0.000000 0.000000 0.000000
		CHANNELS 3 Zrotation Yrotation Xrotation
		JOINT Spine
		{
			OFFSET 0.000000 7.722015 1.166203
			CHANNELS 3 Zrotation Yrotation Xrotation
			JOINT Spine1
			{
				OFFSET 0.000000 12.024086 0.248766
				CHANNELS 3 Zrotation Yrotation Xrotation
				JOINT Spine2
				{
					OFFSET -0.000000 11.503036 -0.491240
					CHANNELS 3 Zrotation Yrotation Xrotation
					JOINT Neck_virtual
					{
						OFFSET 0.000000 0.000000 0.000000
						CHANNELS 3 Zrotation Yrotation Xrotation
						JOINT Neck
						{
							OFFSET 0.000000 18.430687 -3.123054
							CHANNELS 3 Zrotation Yrotation Xrotation
							JOINT Head
							{
								OFFSET -0.000000 9.051071 1.034021
								CHANNELS 3 Zrotation Yrotation Xrotation
								End Site
								{
									OFFSET 0.000000 0.000000 0.000000
								}
							}
						}
					}
					JOINT LeftShoulder_virtual
					{
						OFFSET 0.000000 0.000000 0.000000
						CHANNELS 3 Zrotation Yrotation Xrotation
						JOINT LeftShoulder
						{
							OFFSET 6.197824 13.665230 -4.064723
							CHANNELS 3 Zrotation Yrotation Xrotation
							JOINT LeftArm
							{
								OFFSET 7.778132 -0.187073 -1.709282
								CHANNELS 3 Zrotation Yrotation Xrotation
								JOINT LeftForeArm
								{
									OFFSET 21.954697 0.000000 -2.041093
									CHANNELS 3 Zrotation Yrotation Xrotation
									JOINT LeftHand
									{
										OFFSET 22.992908 0.000000 -0.870901
										CHANNELS 3 Zrotation Yrotation Xrotation
										End Site
										{
											OFFSET 0.000000 0.000000 0.000000
										}
									}
								}
							}
						}
					}
					JOINT RightShoulder_virtual
					{
						OFFSET 0.000000 0.000000 0.000000
						CHANNELS 3 Zrotation Yrotation Xrotation
						JOINT RightShoulder
						{
							OFFSET -6.197824 13.665230 -4.064723
							CHANNELS 3 Zrotation Yrotation Xrotation
							JOINT RightArm
							{
								OFFSET -7.778132 -0.187073 -1.709282
								CHANNELS 3 Zrotation Yrotation Xrotation
								JOINT RightForeArm
								{
									OFFSET -21.954697 0.000000 -2.041093
									CHANNELS 3 Zrotation Yrotation Xrotation
									JOINT RightHand
									{
										OFFSET -22.992908 0.000000 -0.870901
										CHANNELS 3 Zrotation Yrotation Xrotation
										End Site
										{
											OFFSET 0.000000 0.000000 0.000000
										}
									}
								}
							}
						}
					}
				}
			}
		}
	}
}
MOTION
Frames: 5
Frame Time: 0.033333
-8.338001 61.153957 -1.998120 -179.831545 6.149830 -179.801943 2.589020 -3.944494 -4.683809 -7.698141 1.462776 -66.520087 13.523079 -1.249417 81.033904 0.229544 -14.710653 -8.936141 0.000000 0.000000 0.000000 0.258263 1.895795 -2.531655 8.739365 -0.337031 -59.314005 1.480657 2.933890 69.963301 2.414826 1.144660 -11.501817 0.000000 0.000000 0.000000 3.373530 1.650364 -14.745000 2.000200 -0.187818 2.939733 -1.537224 -1.328746 14.922059 -0.038449 -0.043306 0.001367 -2.115076 -0.645211 17.390971 -0.164221 -6.557126 5.760894 0.000000 0.000000 0.000000 -0.427432 -0.513793 13.522161 -4.835518 -4.754861 4.162282 -64.179183 -20.204155 12.324926 118.249276 -86.273957 -100.306471 0.000000 0.000000 0.000000 -3.751919 1.088902 12.975198 19.782057 8.341030 5.417867 61.091582 12.274376 18.725951 -169.033836 71.753009 -176.682787 0.000000 0.000000 0.000000 
-8.269418 61.187267 -2.057302 -179.773885 6.166527 -179.812120 2.619784 -3.817297 -4.567669 -7.419562 1.187431 -66.496099 13.444872 -1.063555 81.066422 0.227209 -14.606576 -9.078411 0.000000 0.000000 0.000000 0.192749 1.932357 -2.440613 8.850472 -0.241691 -59.240894 1.464119 2.858193 69.846594 2.282534 1.143037 -11.531480 0.000000 0.000000 0.000000 3.316754 1.772875 -14.679125 1.986707 -0.204323 2.913018 -1.508863 -1.315994 14.787431 -0.030430 -0.163587 0.029245 -2.157309 -0.825281 17.295303 -0.072827 -6.428495 5.600341 0.000000 0.000000 0.000000 -0.434136 -0.512116 13.384676 -4.708752 -4.388534 3.905684 -64.379840 -20.012716 12.520053 119.804223 -86.291551 -101.905589 0.000000 0.000000 0.000000 -3.780236 0.997295 12.848061 19.863971 8.377597 5.498347 60.955081 12.228124 18.775621 -168.864283 71.870870 -176.727593 0.000000 0.000000 0.000000 
-8.194304 61.219917 -2.092940 -179.937741 6.242341 -179.829715 2.414677 -3.749934 -4.425936 -7.161772 1.183268 -66.527969 13.375005 -0.861341 81.069387 0.225746 -14.626556 -9.240262 0.000000 0.000000 0.000000 0.032166 1.942310 -2.359478 8.938850 -0.172350 -59.180147 1.464259 2.885567 69.742508 2.136638 1.176243 -11.562867 0.000000 0.000000 0.000000 3.121478 1.849502 -14.655018 1.818000 -0.262769 2.874937 -1.516508 -1.378468 14.673799 0.003045 -0.028936 0.008894 -2.093757 -0.881225 17.159419 0.111259 -6.376715 5.428418 0.000000 0.000000 0.000000 -0.385206 -0.575559 13.251457 -4.670224 -4.093503 3.823419 -64.461973 -19.865463 12.805082 121.148896 -86.259005 -103.177944 0.000000 0.000000 0.000000 -3.695769 0.903165 12.717060 19.826369 8.308688 5.337820 60.863652 11.953266 18.703908 -169.230873 71.981472 -177.291289 0.000000 0.000000 0.000000 
-8.104766 61.249878 -2.124217 -179.825179 6.232464 -179.823144 2.436555 -3.700325 -4.305074 -7.014950 1.130681 -66.557441 13.312742 -0.961232 81.015954 -0.071150 -14.427917 -9.308170 0.000000 0.000000 0.000000 0.167811 1.884813 -2.272182 9.046929 -0.188867 -59.109331 1.459592 2.855339 69.652329 1.922963 1.235821 -11.602430 0.000000 0.000000 0.000000 3.122697 1.905703 -14.621514 1.726893 -0.417901 2.852443 -1.449229 -1.437199 14.587324 -0.018926 -0.018376 -0.003823 -2.103537 -0.913638 16.964185 0.256545 -6.253192 5.222046 0.000000 0.000000 0.000000 -0.365979 -0.622452 13.021454 -4.544016 -3.812935 3.760125 -64.561714 -19.676199 13.230436 120.950984 -86.145775 -102.812843 0.000000 0.000000 0.000000 -3.680811 1.001873 12.557496 19.904435 8.194680 5.325799 60.685056 11.804405 18.769181 -169.149075 71.999476 -177.420789 0.000000 0.000000 0.000000 
-8.021259 61.281563 -2.147209 -179.852213 6.237890 -179.841189 2.369768 -3.684209 -4.207780 -6.868173 1.070016 -66.562106 13.291389 -0.972707 80.938595 -0.218833 -14.401049 -9.392405 0.000000 0.000000 0.000000 0.201414 1.854217 -2.177970 9.127572 -0.258279 -59.040217 1.454195 2.917146 69.549938 1.739427 1.301608 -11.662438 0.000000 0.000000 0.000000 3.102004 1.894490 -14.577270 1.539609 -0.398169 2.843803 -1.395419 -1.390556 14.476268 -0.025549 -0.124715 -0.007527 -2.016069 -0.985110 16.847512 0.384326 -6.085473 5.037345 0.000000 0.000000 0.000000 -0.249665 -0.654428 12.860602 -4.538278 -3.656480 3.598591 -64.571140 -19.508885 13.578045 120.935603 -86.327041 -102.564245 0.000000 0.000000 0.000000 -3.595829 0.964228 12.395495 19.781794 8.098117 5.224579 60.485280 11.746798 18.850135 -169.385864 72.149979 -177.924160 0.000000 0.000000 0.000000 
